<svg xmlns="http://www.w3.org/2000/svg" width="240.622" height="300.904" viewBox="0 0 240.622 300.904">
    <defs>
        <style>
            .prefix__cls-1{fill:#e0e2fa}
        </style>
    </defs>
    <g id="prefix__Group_5013" data-name="Group 5013">
        <path id="prefix__Path_1761" d="M208.757 320.414a29.242 29.242 0 0 0-1.983-10.806 25.882 25.882 0 0 0-23.574-16.171c-7.49.016-9.433.089-16.921-.031a78.695 78.695 0 0 1-10.607-.82 47.71 47.71 0 0 1-26.44-13.486 49.253 49.253 0 0 1-14.791-29.775 47.972 47.972 0 0 1 3.31-24.7 49.673 49.673 0 0 1 21.277-24.546 3.408 3.408 0 0 0 1.74-3.725 30.234 30.234 0 0 1 2.508-17.029c4.369-9.072 11.545-14.814 21.233-17.426a28.631 28.631 0 0 1 13.16-.456 31.853 31.853 0 0 1 11.705 4.772c1.962 1.312 3.717.789 4.882-1.233.5-.875 1.059-1.724 1.633-2.555 8.729-12.649 20.6-20.141 35.943-22.051a48.5 48.5 0 0 1 22.341 2.456 50.33 50.33 0 0 1 32.189 35.711c.7 2.981 1.5 3.546 4.654 3.453a28.8 28.8 0 0 1 11.344 2.021 30.528 30.528 0 0 1 14.032 11.027c4.543 6.369 6.043 13.5 5.361 21.176a15.758 15.758 0 0 1-.574 2.955c-.564 1.953-.152 3.1 1.667 3.971a33.369 33.369 0 0 1 10.95 8.468 36.054 36.054 0 0 1 8.5 20.418 39.991 39.991 0 0 1-4.674 23.5 33.448 33.448 0 0 1-11.685 12.45c-6.016 3.823-12.721 5.3-19.743 5.336-16.136.071-14.517.051-30.653-.014a24.464 24.464 0 0 1-5.993-.822 19.674 19.674 0 0 1-14.477-18.544c-.09-9.385-.041-3.339-.047-12.725a1.97 1.97 0 0 1 .014-.217c3.2 2.986 6.414 5.955 9.587 8.969 1.383 1.314 3.618 1.544 4.86.388a3.508 3.508 0 0 0-.168-4.85q-7.459-7.7-14.953-15.37a3.423 3.423 0 0 0-5.135.111q-3.694 3.909-7.437 7.773c-2.413 2.484-4.871 4.925-7.293 7.4a3.434 3.434 0 0 0-.7 4.294 2.988 2.988 0 0 0 3.607 1.284 4.519 4.519 0 0 0 1.961-1.193c3.032-3.085 6.005-6.227 9-9.349l.371.086v1.457c0 9.247-.016 3.062.019 12.309a24.146 24.146 0 0 0 2.761 11.131 26.309 26.309 0 0 0 5.982 7.664 25.287 25.287 0 0 0 17.142 6.544c16.273.064 14.792.011 31.065.014a46.815 46.815 0 0 0 16.9-2.94 37.8 37.8 0 0 0 17.7-13.453 43.241 43.241 0 0 0 8.265-24.438 48.307 48.307 0 0 0-2.65-18.048A40.321 40.321 0 0 0 328.088 219a1.465 1.465 0 0 1-.666-1.042c.034-1.645.277-3.288.279-4.932a37.288 37.288 0 0 0-1.08-10.529 36.3 36.3 0 0 0-9.944-16.474 34.6 34.6 0 0 0-21.527-9.87c-2.872-.244-2.871-.206-3.807-2.914-.18-.52-.449-1.01-.621-1.533a52.438 52.438 0 0 0-10.158-17.946 56.512 56.512 0 0 0-18.469-14.3 53.6 53.6 0 0 0-19.178-5.279 93.859 93.859 0 0 0-9.481.048 48.2 48.2 0 0 0-12.963 2.409 53.749 53.749 0 0 0-24.585 15.86c-1.99 2.217-3.749 4.642-5.4 6.7-3.779-1.246-7.368-2.849-11.126-3.588a36.333 36.333 0 0 0-28.732 6.017c-11.213 7.81-16.515 18.681-16.112 32.311a2.53 2.53 0 0 1-1.282 2.557 56.131 56.131 0 0 0-4.771 90.169 53.694 53.694 0 0 0 32.418 12.695c8.86.391 12.2.269 21.077.126a20.219 20.219 0 0 1 20.75 20.134c0 .767-.007 6.071-.009 13.991h6.14z" class="prefix__cls-1" data-name="Path 1761" transform="translate(-107.983 -134.067)"/>
        <path id="prefix__Path_1762" d="M408.962 1018.986c.005 5.625.431 36.939.431 42.564a6.865 6.865 0 0 1-.138.982l-.386.2a9.633 9.633 0 0 0-.814-1.116q-4.338-4.479-8.7-8.933a2.972 2.972 0 0 0-4.308-.324 2.911 2.911 0 0 0-.066 4.413c.773.855 1.592 1.669 2.4 2.5q6.284 6.448 12.574 12.89a3.162 3.162 0 0 0 4.965-.017c.387-.395.721-.84 1.107-1.236 4.546-4.664 9.111-9.311 13.64-13.992a3.035 3.035 0 0 0 .1-4.551 3.069 3.069 0 0 0-4.434.389q-2.557 2.636-5.1 5.286l-4.449 4.616-.362-.208v-1.477q0-7.831-.009-15.661c0-2.009-.5 3.764-.495-26.315z" class="prefix__cls-1" data-name="Path 1762" transform="translate(-314.655 -772.443)"/>
    </g>
</svg>
